<svg id="电池-big" xmlns="http://www.w3.org/2000/svg" width="48" height="48" viewBox="0 0 48 48">
  <defs>
    <style>
      .cls-1 {
        opacity: 0;
      }

      .cls-2 {
        fill: #e6e6e6;
      }

      .cls-3 {
        fill: #52c429;
      }

      .cls-4 {
        fill: #fff;
      }
    </style>
  </defs>
  <rect id="矩形" class="cls-1" width="48" height="48"/>
  <g id="_x33_.1" transform="translate(-0.4 -2.6)">
    <g id="组_89" data-name="组 89">
      <path id="矩形备份_2_3_" class="cls-2" d="M44.4,27.7v7.8c0,1.4-.9,2.6-2,2.6h0v-13h0C43.5,25.1,44.4,26.2,44.4,27.7Z"/>
      <rect id="矩形_129" data-name="矩形 129" class="cls-2" width="1" height="4.4" transform="translate(9.4 18.6)"/>
      <path id="路径_189" data-name="路径 189" class="cls-2" d="M12.4,15.6v-4h-1v4h-3v-4h-1v4h-3v6.6a4.42,4.42,0,0,0,4.3,4.4h.7v15h1v-15h.7a4.354,4.354,0,0,0,4.3-4.4V15.6h-3Zm2,6.6a3.351,3.351,0,0,1-3.3,3.4H8.7a3.417,3.417,0,0,1-3.3-3.4V16.6h9Z"/>
      <path id="路径_190" data-name="路径 190" class="cls-2" d="M40.2,21.6H17.4v1H40.3a1.216,1.216,0,0,1,1.2,1.2V39.4a1.29,1.29,0,0,1-1.2,1.2H12.4v1H40.2a2.2,2.2,0,0,0,2.1-2.2V23.8A2.076,2.076,0,0,0,40.2,21.6Z"/>
    </g>
    <path id="路径_191" data-name="路径 191" class="cls-3" d="M38.2,24.6H16.9a6.756,6.756,0,0,1-4.5,3.9v9a1.2,1.2,0,0,0,1.1,1.2H38.2a1.135,1.135,0,0,0,1.1-1.2V25.7A1.049,1.049,0,0,0,38.2,24.6Z"/>
    <path id="路径_3_" class="cls-4" d="M27.6,33a.55.55,0,0,1,.3-.5h.2l5.8,1.7c.2.1.4-.1.5-.3,0-.2,0-.3-.1-.4l-9.9-7.4a.471.471,0,0,0-.6.1.367.367,0,0,0-.1.3l.5,3.8a.55.55,0,0,1-.3.5h-.2l-5.8-1.6c-.2-.1-.4.1-.5.3,0,.2,0,.3.1.4L27.3,37a.471.471,0,0,0,.6-.1.367.367,0,0,0,.1-.3Z"/>
  </g>
</svg>
