<svg id="组件_44_2" data-name="组件 44 – 2" xmlns="http://www.w3.org/2000/svg" width="16" height="16" viewBox="0 0 16 16">
  <defs>
    <style>
      .cls-1 {
        opacity: 0;
      }

      .cls-2 {
        fill: #e6e6e6;
      }

      .cls-3 {
        fill: #52c429;
      }

      .cls-4 {
        fill: #fff;
      }
    </style>
  </defs>
  <g id="电池-01备份_3" data-name="电池-01备份 3" transform="translate(26 -6) rotate(90)">
    <rect id="矩形" class="cls-1" width="16" height="16" rx="4" transform="translate(6 10)"/>
    <path id="矩形备份_2" data-name="矩形备份 2" class="cls-2" d="M1,0H4A1,1,0,0,1,5,1V1A0,0,0,0,1,5,1H0A0,0,0,0,1,0,1V1A1,1,0,0,1,1,0Z" transform="translate(13.5 10)"/>
    <g id="组_92" data-name="组 92" transform="translate(119 1759) rotate(-90)">
      <path id="矩形-2" data-name="矩形" class="cls-2" d="M4,5.5H1a1,1,0,0,1-1-1V1A1,1,0,0,1,1,0H4A1,1,0,0,1,5,1V4.5A1,1,0,0,1,4,5.5ZM1,1V4.5H4V1Z" transform="translate(1733 -110.5)"/>
      <path id="路径_2备份" data-name="路径 2备份" class="cls-2" d="M6.533,0A.484.484,0,0,1,7,.5a.492.492,0,0,1-.383.492L6.533,1H0V0Z" transform="translate(1736 -105) rotate(90)"/>
      <path id="路径_2备份_2" data-name="路径 2备份 2" class="cls-2" d="M1.5,0a.5.5,0,0,1,.09.992L1.5,1H.5A.5.5,0,0,1,.41.008L.5,0Z" transform="translate(1735 -112) rotate(90)"/>
      <path id="路径_2备份_3" data-name="路径 2备份 3" class="cls-2" d="M1.5,0a.5.5,0,0,1,.09.992L1.5,1H.5A.5.5,0,0,1,.41.008L.5,0Z" transform="translate(1737 -112) rotate(90)"/>
    </g>
    <path id="减去_17" data-name="减去 17" class="cls-2" d="M-3569-1018.5h-1.086a1.5,1.5,0,0,0,.085-.5v-8a1.5,1.5,0,0,0-1.5-1.5h-5a1.5,1.5,0,0,0-1.5,1.5v6.5h-1v-7a2,2,0,0,1,2-2h6a2,2,0,0,1,2,2v9Z" transform="translate(3590 1040.5)"/>
  </g>
  <path id="减去_18" data-name="减去 18" class="cls-3" d="M-1844.5-1140.5h-8a.5.5,0,0,1-.5-.5v-3.5h.8a1.192,1.192,0,0,0,1.2-1.182v-.818h6.5a.5.5,0,0,1,.5.5v5A.5.5,0,0,1-1844.5-1140.5Z" transform="translate(1857 1153.5)"/>
  <path id="路径" class="cls-4" d="M3.738,4.185a.2.2,0,0,1-.222-.253l.833-2.895A.2.2,0,0,0,4,.861L.292,5.767a.2.2,0,0,0,.188.319l1.909-.272a.2.2,0,0,1,.22.254L1.784,8.922a.2.2,0,0,0,.353.174L5.715,4.234a.2.2,0,0,0-.191-.316Z" transform="translate(5.5 5)"/>
</svg>
