<svg id="电池-big" xmlns="http://www.w3.org/2000/svg" width="48" height="48" viewBox="0 0 48 48">
  <defs>
    <style>
      .cls-1 {
        opacity: 0;
      }

      .cls-2 {
        fill: #e6e6e6;
      }

      .cls-3 {
        fill: #ff524e;
      }
    </style>
  </defs>
  <rect id="矩形" class="cls-1" width="48" height="48"/>
  <g id="组_88_1_" transform="translate(-2.4 -7.6)">
    <g id="组_90" data-name="组 90">
      <path id="路径_192" data-name="路径 192" class="cls-2" d="M40.2,41.6H11.5a2.135,2.135,0,0,1-2.1-2.2V23.8a2.2,2.2,0,0,1,2.1-2.2H40.2a2.135,2.135,0,0,1,2.1,2.2V39.4A2.274,2.274,0,0,1,40.2,41.6Zm-28.7-19a1.29,1.29,0,0,0-1.2,1.2V39.4a1.153,1.153,0,0,0,1.2,1.2H40.2a1.29,1.29,0,0,0,1.2-1.2V23.8a1.153,1.153,0,0,0-1.2-1.2H11.5Z"/>
    </g>
    <path id="矩形备份_6_1_" class="cls-3" d="M17.4,25.7V37.4a1.2,1.2,0,0,1-1.1,1.2H13.5a1.135,1.135,0,0,1-1.1-1.2V25.7a1.2,1.2,0,0,1,1.1-1.2h2.7A1.379,1.379,0,0,1,17.4,25.7Z"/>
    <path id="矩形备份_2_1_" class="cls-2" d="M44.4,27.7v7.8c0,1.4-.9,2.6-2,2.6h0v-13h0C43.5,25.1,44.4,26.2,44.4,27.7Z"/>
  </g>
</svg>
