<svg id="电池-small" xmlns="http://www.w3.org/2000/svg" width="16" height="16" viewBox="0 0 16 16">
  <defs>
    <style>
      .cls-1 {
        opacity: 0;
      }

      .cls-2, .cls-6 {
        fill: none;
      }

      .cls-2 {
        stroke: #e6e6e6;
        stroke-miterlimit: 10;
      }

      .cls-3 {
        fill: #52c429;
      }

      .cls-4 {
        fill: #e6e6e6;
      }

      .cls-5 {
        stroke: none;
      }
    </style>
  </defs>
  <g id="电池-01备份_3" data-name="电池-01备份 3" transform="translate(24 -8) rotate(90)">
    <rect id="矩形" class="cls-1" width="16" height="16" transform="translate(8 8)"/>
    <g id="矩形-2" data-name="矩形" class="cls-2" transform="translate(11 9)">
      <rect class="cls-5" width="10" height="15" rx="2"/>
      <rect class="cls-6" x="0.5" y="0.5" width="9" height="14" rx="1.5"/>
    </g>
    <rect id="矩形备份" class="cls-3" width="6" height="6" rx="0.5" transform="translate(13 16)"/>
    <path id="矩形备份_2" data-name="矩形备份 2" class="cls-4" d="M1,0H4A1,1,0,0,1,5,1V1A0,0,0,0,1,5,1H0A0,0,0,0,1,0,1V1A1,1,0,0,1,1,0Z" transform="translate(13.5 8)"/>
  </g>
</svg>
