<svg id="icon-ECO-s" xmlns="http://www.w3.org/2000/svg" width="16" height="16" viewBox="0 0 16 16">
  <defs>
    <style>
      .cls-1 {
        fill: rgba(255,255,255,0);
      }

      .cls-2 {
        fill: #262626;
      }

      .cls-3 {
        fill: none;
        stroke-miterlimit: 10;
      }

      .cls-4, .cls-5 {
        stroke: none;
      }

      .cls-5 {
        fill: #262626;
      }
    </style>
  </defs>
  <rect id="矩形_63" data-name="矩形 63" class="cls-1" width="16" height="16"/>
  <path id="路径" class="cls-2" d="M12.535,12.47a.146.146,0,0,1-.166-.122.161.161,0,0,1,0-.062l.606-2.1a.146.146,0,0,0-.254-.128l-2.7,3.566a.145.145,0,0,0,.027.2.143.143,0,0,0,.109.028l1.388-.2a.145.145,0,0,1,.164.124.14.14,0,0,1,0,.061l-.6,2.075a.146.146,0,0,0,.257.126l2.6-3.534a.146.146,0,0,0-.031-.2.144.144,0,0,0-.108-.027Z" transform="translate(-4 -4)"/>
  <g id="路径_120" data-name="路径 120" class="cls-3" transform="translate(-4 -4)">
    <path class="cls-4" d="M17,14.333A4.726,4.726,0,0,1,12,19a4.726,4.726,0,0,1-5-4.667C7,11.572,12,5,12,5S17,11.572,17,14.333Z"/>
    <path class="cls-5" d="M 12 18 C 13.10896015167236 18 14.12580013275146 17.63130950927734 14.86320018768311 16.96186065673828 C 15.60690021514893 16.28668022155762 16 15.37763977050781 16 14.33300018310547 C 16 13.90161991119385 15.77208042144775 12.53551959991455 13.66096019744873 9.175379753112793 C 13.06239700317383 8.222686767578125 12.4590015411377 7.344471454620361 11.99993324279785 6.697415351867676 C 11.5432300567627 7.341130256652832 10.94337272644043 8.214178085327148 10.34657001495361 9.163390159606934 C 8.228650093078613 12.53194999694824 8 13.90081977844238 8 14.33300018310547 C 8 15.37763977050781 8.393099784851074 16.28668022155762 9.136799812316895 16.96186065673828 C 9.874199867248535 17.63130950927734 10.89103984832764 18 12 18 M 12 19 C 9.23900032043457 19 7 17.09499931335449 7 14.33300018310547 C 7 11.57199954986572 12 5 12 5 C 12 5 17 11.57199954986572 17 14.33300018310547 C 17 17.09499931335449 14.76099967956543 19 12 19 Z"/>
  </g>
</svg>
